<?xml version="1.0" encoding="UTF-8"?>
<!-- Generator: Adobe Illustrator 27.2.0, SVG Export Plug-In . SVG Version: 6.00 Build 0)  -->
<svg xmlns="http://www.w3.org/2000/svg" xmlns:xlink="http://www.w3.org/1999/xlink" version="1.1" id="Layer_1" x="0px" y="0px" viewBox="0 0 1080 1105.6" style="enable-background:new 0 0 1080 1105.6;" xml:space="preserve">
<style type="text/css">
	.st0{fill:#FFFFFF;}
	.st1{fill:#A48830;}
	.st2{fill:#00AEEF;}
	
		.st3{opacity:0.5;clip-path:url(#SVGID_00000129206547422575549840000014051222911832735914_);fill:#FFFFFF;enable-background:new    ;}
	.st4{clip-path:url(#SVGID_00000135681257956515865040000002659938923133489845_);fill:#14517C;}
	.st5{opacity:0.75;clip-path:url(#SVGID_00000150787180139573000200000015285216341823519109_);}
	.st6{clip-path:url(#SVGID_00000168079155625348825670000003495602306635340470_);fill:none;}
	.st7{clip-path:url(#SVGID_00000051344614349503445240000013658184452281993150_);}
	
		.st8{clip-path:url(#SVGID_00000080187559225715869530000012464442994742841475_);fill:#FFFFFF;stroke:#FFFFFF;stroke-width:0.4496;}
	.st9{clip-path:url(#SVGID_00000041985743953728686440000017424864047803001011_);fill:#14517C;}
</style>
<g>
	<path class="st0" d="M1080,579.9V473.2H837.5v65.2h-44.4v0.3c-8.4-2.4-17.9-3.6-28.8-3.6c-26.9,0-49.4,9.9-65,27.2v-23.8H583.1v28   c-18-19.9-45.2-31.3-78.9-31.3c-32.8,0-59.5,10.8-77.4,29.8v-26.4H240.6v-65.2h-87.1v1.8c-11.7-4.3-25.3-6.4-41.4-6.4   C45.1,468.6,0,520.1,0,596.6C0,683.9,47.1,734,129.4,734c36.3,0,65.4-10.2,85.2-28.7v25.2h212.2v-26.4c18,19,44.6,29.8,77.4,29.8   c33.7,0,60.9-11.4,78.9-31.3v28h116.2V704c17.4,19.5,43.9,29.9,78.1,29.9c24.4,0,44.8-5.9,60.1-16.5v12H1080v-110h-61.7V580   L1080,579.9L1080,579.9z M146.4,635.2c-0.2,6.1-2.2,12.1-5.6,16.4c-3.4,3.7-7,5.5-11.1,5.5c-18.9,0-28.6-17.8-28.6-52.9   c0-22,3.7-58.8,28.2-58.8c8.5,0,12,3.1,14.2,6c3.9,5.3,5.9,13.1,5.9,22.7v19.5h65.1v7.7h15.3v15h-83L146.4,635.2z M331.4,667.6   h-17.9h-2.9v-1.9h20.8V667.6z M331.4,601.3h-20.8v0L331.4,601.3L331.4,601.3z M504.2,670.9c-12.9,0-19.5-12.3-19.5-36.5   s6.6-36.5,19.5-36.5s19.5,12.3,19.5,36.5S517.2,670.9,504.2,670.9z M787.6,658.8c-0.1,3.3-1.3,6.7-3.3,9.1c-2.1,2.1-4.2,3-6.7,3   c-4.7,0-19,0-19-34.3c0-25.6,6.3-38.7,18.8-38.7c5.6,0,7.7,1.6,8.9,3.2c2.4,3,3.7,7.9,3.7,13.7v17.8h68.8v8.9h-70.6L787.6,658.8z"></path>
	<rect x="96.2" y="44.5" class="st1" width="887.6" height="328.3"></rect>
	<rect x="58.5" class="st0" width="963" height="1105.6"></rect>
	<rect x="68.7" y="11.4" class="st2" width="942.6" height="1082.8"></rect>
	<g>
		<g>
			<defs>
				<rect id="SVGID_1_" x="97.7" y="46.8" width="884.7" height="353.4"></rect>
			</defs>
			<clipPath id="SVGID_00000060023003445484821480000007216225229203321506_">
				<use xlink:href="#SVGID_1_" style="overflow:visible;"></use>
			</clipPath>
			
				<path style="opacity:0.5;clip-path:url(#SVGID_00000060023003445484821480000007216225229203321506_);fill:#FFFFFF;enable-background:new    ;" d="     M97.7,108.7v291.6h46.6V108.7H97.7z M190.8,108.7v291.6h46.6V108.7H190.8z M283.9,108.7v291.6h46.6V108.7H283.9z M377,108.7     v291.6h46.6V108.7H377z M470.2,108.7v291.6h46.6V108.7H470.2z M563.3,108.7v291.6h46.6V108.7H563.3z M656.4,108.7v291.6H703     V108.7H656.4z M749.6,108.7v291.6h46.6V108.7H749.6z M842.7,108.7v291.6h46.6V108.7H842.7z M935.8,108.7v291.6h46.6V108.7H935.8z     "></path>
		</g>
		<g>
			<defs>
				<rect id="SVGID_00000105395144230419813080000010045595110399566771_" x="97.7" y="46.8" width="884.7" height="353.4"></rect>
			</defs>
			<clipPath id="SVGID_00000083787468078765651670000013044374871132305063_">
				<use xlink:href="#SVGID_00000105395144230419813080000010045595110399566771_" style="overflow:visible;"></use>
			</clipPath>
			
				<rect x="97.7" y="46.8" style="clip-path:url(#SVGID_00000083787468078765651670000013044374871132305063_);fill:#14517C;" width="884.7" height="89.5"></rect>
		</g>
		<g>
			<defs>
				<rect id="SVGID_00000018195012755339678020000017102627734653849776_" x="97.7" y="46.8" width="884.7" height="353.4"></rect>
			</defs>
			<clipPath id="SVGID_00000000943691246183242440000008438561316152074631_">
				<use xlink:href="#SVGID_00000018195012755339678020000017102627734653849776_" style="overflow:visible;"></use>
			</clipPath>
			<g style="opacity:0.75;clip-path:url(#SVGID_00000000943691246183242440000008438561316152074631_);">
				<path class="st0" d="M724.4,82.4l-14,10l5.5,16.2l-14-10.2l-13.8,10.2l5.4-16.3l-14-9.9l17.3,0.1l5.2-16.3l5.3,16.3L724.4,82.4z      "></path>
				<path class="st0" d="M805.4,82.4l-14,10l5.5,16.2l-14-10.2l-13.8,10.2l5.4-16.3l-14-9.9l17.3,0.1l5.2-16.3l5.3,16.3L805.4,82.4z      "></path>
				<path class="st0" d="M886.4,82.4l-14,10l5.5,16.2l-14-10.2L850,108.6l5.4-16.3l-14-9.9l17.3,0.1l5.2-16.3l5.3,16.3L886.4,82.4z"></path>
				<path class="st0" d="M967.4,82.4l-14,10l5.5,16.2l-14-10.2L931,108.6l5.4-16.3l-14-9.9l17.3,0.1l5.2-16.3l5.3,16.3L967.4,82.4z"></path>
				<path class="st0" d="M643.5,82.4l-14,10l5.5,16.2l-14-10.2l-13.8,10.2l5.4-16.3l-14-9.9l17.3,0.1l5.2-16.3l5.3,16.3L643.5,82.4z      "></path>
				<path class="st0" d="M562.5,82.4l-14,10l5.5,16.2l-14-10.2l-13.8,10.2l5.4-16.3l-14-9.9l17.3,0.1l5.2-16.3l5.3,16.3L562.5,82.4z      "></path>
				<path class="st0" d="M481.6,82.4l-14,10l5.5,16.2l-14-10.2l-13.8,10.2l5.4-16.3l-14-9.9l17.3,0.1l5.2-16.3l5.3,16.3L481.6,82.4z      "></path>
				<path class="st0" d="M400.6,82.4l-14,10l5.5,16.2l-14-10.2l-13.8,10.2l5.4-16.3l-14-9.9l17.3,0.1l5.2-16.3l5.3,16.3L400.6,82.4z      "></path>
				<path class="st0" d="M319.6,82.4l-14,10l5.5,16.2l-14-10.2l-13.8,10.2l5.4-16.3l-14-9.9l17.3,0.1l5.2-16.3l5.3,16.3L319.6,82.4z      "></path>
				<path class="st0" d="M238.6,82.4l-14,10l5.5,16.2l-14-10.2l-13.8,10.2l5.4-16.3l-14-9.9l17.3,0.1l5.2-16.3l5.3,16.3L238.6,82.4z      "></path>
				<path class="st0" d="M157.7,82.4l-14,10l5.5,16.2l-14-10.2l-13.8,10.2l5.4-16.3l-14-9.9l17.3,0.1l5.2-16.3l5.3,16.3L157.7,82.4z      "></path>
			</g>
		</g>
		<g>
			<defs>
				<rect id="SVGID_00000041981681329197847950000012492584747349878947_" x="97.7" y="46.8" width="884.7" height="353.4"></rect>
			</defs>
			<clipPath id="SVGID_00000065071563362444843130000003146243737393862832_">
				<use xlink:href="#SVGID_00000041981681329197847950000012492584747349878947_" style="overflow:visible;"></use>
			</clipPath>
			
				<rect x="97.7" y="46.8" style="clip-path:url(#SVGID_00000065071563362444843130000003146243737393862832_);fill:none;" width="884.7" height="353.4"></rect>
		</g>
		<g>
			<defs>
				<rect id="SVGID_00000046338673097621327300000009161500320910110614_" x="97.7" y="46.8" width="884.7" height="353.4"></rect>
			</defs>
			<clipPath id="SVGID_00000118364256878269377610000013725001884894823052_">
				<use xlink:href="#SVGID_00000046338673097621327300000009161500320910110614_" style="overflow:visible;"></use>
			</clipPath>
			<g style="clip-path:url(#SVGID_00000118364256878269377610000013725001884894823052_);">
				<path d="M39.9,459V258.2c340.9-50.1,400.8-43,571.7,42.3c192.6,96.3,371.8,27.1,374.8,26.8V459L39.9,459L39.9,459z"></path>
			</g>
		</g>
		<g>
			<defs>
				<rect id="SVGID_00000054945082994645262050000004318893982924107688_" x="97.7" y="46.8" width="884.7" height="353.4"></rect>
			</defs>
			<clipPath id="SVGID_00000029764992249183739440000013582261233874905995_">
				<use xlink:href="#SVGID_00000054945082994645262050000004318893982924107688_" style="overflow:visible;"></use>
			</clipPath>
			
				<path style="clip-path:url(#SVGID_00000029764992249183739440000013582261233874905995_);fill:#FFFFFF;stroke:#FFFFFF;stroke-width:0.4496;" d="     M1042.7,305.5c-133.7,65.2-242.9,52-317.6,36.2c-84.6-17.9-161.1-51.9-247.7-68.3c-80.9-15.3-177.1-0.8-264.3,20.4     C142.2,311.1,78,338.9,11,363.6v-60.2c64.2-21.1,122.8-51.7,190.6-64.4c88.3-16.5,192.5-2.7,273.9,16.5     c88.6,21,163.5,61.4,249.7,81.8c75.3,17.8,188.9,25.4,317.5-32.8L1042.7,305.5L1042.7,305.5z"></path>
		</g>
		<g>
			<defs>
				<rect id="SVGID_00000010306452820950632860000014755660583493020288_" x="97.7" y="46.8" width="884.7" height="353.4"></rect>
			</defs>
			<clipPath id="SVGID_00000049939315500889944980000013771010740367547546_">
				<use xlink:href="#SVGID_00000010306452820950632860000014755660583493020288_" style="overflow:visible;"></use>
			</clipPath>
			<path style="clip-path:url(#SVGID_00000049939315500889944980000013771010740367547546_);fill:#14517C;" d="M1042.7,304.8     c-40.8,18.2-83.3,31.9-124.5,40.5c-99.4,20.5-203-6.1-296.5-39c-98.8-34.8-347.2-124.7-610.7,1.2v-52.9     c268.5-119.4,508.9,2.7,607.8,41.5c94,36.9,198.6,66.1,297.9,46.8c54.4-10.6,95.2-25.8,125.9-39.2L1042.7,304.8L1042.7,304.8z"></path>
		</g>
	</g>
	<rect x="89.1" y="388.7" width="901.9" height="683.6"></rect>
	<path d="M980.1,50v1010.4H99.9V50H980.1 M991,38.2H89.1v1034.1h901.9L991,38.2L991,38.2z"></path>
	<g>
		<rect x="133.1" y="874" class="st0" width="813.8" height="3.7"></rect>
	</g>
	<g>
		<polygon points="321.5,722.4 321.5,675.6 339.4,675.6 339.4,657.6 302.5,657.6 302.5,675.6 320.4,675.6 320.4,722.4 222.7,722.4     222.7,675.6 238,675.6 238,593.2 222.7,593.2 222.7,546.4 320.4,546.4 320.4,593.2 302.5,593.2 302.5,609.3 339.4,609.3     339.4,593.2 321.5,593.2 321.5,546.4 418.7,546.4 418.7,593.2 403.9,593.2 403.9,675.6 418.7,675.6 418.7,722.4   "></polygon>
		<path d="M504.2,725.8c-58.4,0-94.7-35-94.7-91.3s36.3-91.3,94.7-91.3c58.4,0,94.7,35,94.7,91.3    C598.9,690.8,562.6,725.8,504.2,725.8z M504.2,589.9c-22.8,0-27.6,24.2-27.6,44.5s4.8,44.5,27.6,44.5c22.8,0,27.6-24.2,27.6-44.5    S527,589.9,504.2,589.9z"></path>
		<polygon points="591.1,722.4 591.1,675.6 608.8,675.6 608.8,593.2 591.1,593.2 591.1,546.4 691.3,546.4 691.3,593.2 673.3,593.2     673.3,675.6 691.3,675.6 691.3,722.4   "></polygon>
		<path d="M777.4,725.8c-60.6,0-94-33.6-94-94.7c0-52.6,32.5-88,80.8-88c15,0,27.2,2.4,36.9,7.4v-4h56.4v78.1H798v-9.8    c0-7.7-1.8-14.1-5.4-18.6c-3.4-4.2-8.3-6.3-15.3-6.3c-12.2,0-26.8,8.1-26.8,46.7c0,19.3,4.7,42.4,27.1,42.4c4.7,0,9-1.9,12.6-5.7    c3.2-3.8,5.2-9,5.4-14.3l0.3-9.4h64.8l-0.5,10.3C858,701.1,827.1,725.8,777.4,725.8z"></path>
		<path d="M129.4,725.9C51.2,725.9,8.1,680,8.1,596.6c0-71.8,41.8-120,104.1-120c20.3,0,36.7,3.6,49.4,11v-6.4h71v104.2h-75V574    c0-11.2-2.6-20.7-7.5-27.4c-4.8-6.3-11.4-9.3-20.7-9.3c-31.6,0-36.3,41.9-36.3,66.9c0,50.3,19.9,60.9,36.6,60.9    c6.4,0,12.2-2.8,17.2-8.3c4.6-5.7,7.3-13.5,7.5-21.4l0.3-11.1h81.9l-0.6,12C233.2,692.4,193.4,725.9,129.4,725.9z"></path>
		<path d="M845.6,721.2v-60.7h21.3V542h-21.3v-60.7h226.4v90.6h-61.7v55.4h61.7v94L845.6,721.2L845.6,721.2z M1001.3,660.5v-9h-49.1    v9H1001.3z M1001.3,548.3V542h-49.1v6.3H1001.3z"></path>
	</g>
	<g>
		<g>
			<path class="st0" d="M221.1,574H169c0-13.3-3.1-25.2-9.7-34.2c-6.6-8.6-16.2-13.9-30-13.9c-39.3,0-47.7,44.5-47.7,78.3     c0,34.2,10,72.4,48.1,72.4c10.6,0,19.3-5,25.9-12.3c6.2-7.6,10-17.9,10.3-28.5h58.7c-2.8,56.8-46.5,78.7-95.2,78.7     c-72.7,0-109.9-42.1-109.9-117.8c0-60.1,32.1-108.5,92.7-108.5c22.2,0,46.5,4.3,60.2,25.2h0.6v-20.6h48.1L221.1,574L221.1,574z"></path>
			<path class="st0" d="M232.5,685.4h15.3V583.5h-15.3v-27.3h78.2v27.3h-18v35.7h56.5v-35.7h-17.9v-27.3H409v27.3h-14.8v101.9H409     v27.3h-77.7v-27.3h17.9v-37.6h-56.5v37.6h18v27.3h-78.2V685.4z"></path>
			<path class="st0" d="M419.3,634.4c0-50.7,32.3-81.6,84.9-81.6c52.6,0,84.9,30.9,84.9,81.6c0,50.7-32.3,81.6-84.9,81.6     C451.6,716,419.3,685.1,419.3,634.4z M541.6,634.4c0-23.9-6.7-54.3-37.3-54.3c-30.6,0-37.3,30.4-37.3,54.3s6.7,54.3,37.3,54.3     C534.8,688.7,541.6,658.4,541.6,634.4z"></path>
			<path class="st0" d="M600.9,685.4h17.7V583.5h-17.7v-27.3h80.6v27.3h-18v101.9h18v27.3h-80.6V685.4z"></path>
			<path class="st0" d="M847.8,614.8h-39.9c0-9.6-2.4-18.2-7.4-24.6c-5-6.2-12.4-10-22.9-10c-30.1,0-36.6,32.1-36.6,56.5     c0,24.6,7.6,52.2,36.8,52.2c8.1,0,14.8-3.6,19.9-8.8c4.8-5.5,7.6-12.9,7.9-20.6h45c-2.1,40.9-35.7,56.7-73,56.7     c-55.7,0-84.2-30.4-84.2-84.9c0-43.3,24.6-78.2,71.1-78.2c17,0,35.7,3.1,46.2,18.2h0.5v-14.8h36.8L847.8,614.8L847.8,614.8z"></path>
			<path class="st0" d="M857,672h21.3V530.6H857v-37.8h203.5v67.7h-47.8v-29.9h-72v51.1h20.2v-21.9h37.8v80.3h-37.8v-22.6h-20.2V672     h72v-33.2h47.8v71H857V672z"></path>
		</g>
		<g>
			<path class="st2" d="M30.8,596.6c0-58.7,30.1-97.9,77.4-102.7c-50.6,1.9-83,41.8-83,102.7c0,70.3,33.1,108.9,96,111.9     C62,703.4,30.8,665,30.8,596.6z"></path>
			<rect x="178.8" y="498.5" class="st2" width="5.6" height="20.2"></rect>
			<path class="st2" d="M159.9,668.1c-7,7.8-15.4,12.4-24.7,13.8c0.2,0,0.3,0,0.5,0c11.3,0,21.6-4.9,29.9-14.1     c5.9-7.2,9.9-16.6,11.2-26.4h-5.5C169.9,651.3,165.9,660.8,159.9,668.1z"></path>
			<path class="st2" d="M135.9,520.6c11.7,1.4,21.1,6.7,28.1,15.9c6.1,8.4,9.7,19.3,10.6,31.8h5.6c-0.8-12.4-4.5-23.3-10.5-31.6     C161.6,526.1,150.3,520.7,135.9,520.6z"></path>
			<rect x="354.9" y="642.5" class="st2" width="5.6" height="48.2"></rect>
			<rect x="337" y="691.1" class="st2" width="5.6" height="15.8"></rect>
			<rect x="337" y="561.9" class="st2" width="5.6" height="15.8"></rect>
			<rect x="238.2" y="691.1" class="st2" width="5.6" height="15.8"></rect>
			<rect x="354.9" y="578.1" class="st2" width="5.6" height="46.3"></rect>
			<rect x="253.5" y="578.1" class="st2" width="5.6" height="112.6"></rect>
			<rect x="238.2" y="561.9" class="st2" width="5.6" height="15.8"></rect>
			<path class="st2" d="M510.2,574.8C510.2,574.8,510.2,574.8,510.2,574.8c23.6,3,37.1,24.3,37.1,59.6c0,35.3-13.5,56.7-37.2,59.6     c0,0,0,0,0.1,0c27.1,0,42.6-21.7,42.6-59.6C552.8,596.5,537.3,574.8,510.2,574.8z"></path>
			<path class="st2" d="M498.8,558.8c-46.3,2-73.8,30-73.8,75.6c0,45.7,27.5,73.6,73.8,75.6c-42.9-4.1-68.2-31.7-68.2-75.6     C430.6,590.5,455.9,562.9,498.8,558.8z"></path>
			<rect x="624.3" y="578.1" class="st2" width="5.6" height="112.6"></rect>
			<rect x="606.6" y="691.1" class="st2" width="5.6" height="15.8"></rect>
			<rect x="606.6" y="561.9" class="st2" width="5.6" height="15.8"></rect>
			<rect x="816.6" y="561.9" class="st2" width="5.6" height="14.4"></rect>
			<path class="st2" d="M801.7,683.8c-5.4,5.6-11.8,9.1-18.9,10.2c0.3,0,0.6,0,0.9,0c9,0,17.2-3.6,23.7-10.5     c4.5-5.2,7.6-11.6,8.8-18.5h-5.5C809.4,672,806.3,678.5,801.7,683.8z"></path>
			<path class="st2" d="M783.4,574.8c-0.1,0-0.1,0-0.2,0c9,1.2,16.2,5.1,21.7,11.8c4.6,6,7.5,13.6,8.4,22.4h5.5     c-0.9-8.7-3.7-16.3-8.2-22.2C804.1,578.9,794.9,574.8,783.4,574.8z"></path>
			<path class="st2" d="M704.5,631.1c0-41,22.1-68.5,57.1-72.4c-38.1,1.3-62.7,29.4-62.7,72.4c0,50.4,24.3,76.9,72.2,79     C726.9,706.1,704.5,679.5,704.5,631.1z"></path>
			<rect x="862.8" y="677.7" class="st2" width="5.6" height="26.4"></rect>
			<rect x="884" y="525.2" class="st2" width="5.6" height="152.1"></rect>
			<rect x="966.6" y="612.2" class="st2" width="5.6" height="22.2"></rect>
			<rect x="966.6" y="565.5" class="st2" width="5.6" height="21.5"></rect>
			<rect x="1018.4" y="644.5" class="st2" width="5.6" height="32.8"></rect>
			<rect x="862.8" y="498.5" class="st2" width="5.6" height="26.4"></rect>
			<rect x="1018.4" y="525.2" class="st2" width="5.6" height="29.5"></rect>
		</g>
	</g>
	<g>
		<path class="st0" d="M257.6,398v20.8H247v-12.1h-10.5v42.7h8.7v8.7H215v-8.7h8.7v-42.7h-10.5v12.1h-10.6V398H257.6z"></path>
		<path class="st0" d="M263.4,449.5h7.5v-42.7h-7.5V398h29v8.7h-8.7v16.4h26v-16.4h-8.7V398h29v8.7h-7.5v42.7h7.5v8.7h-29v-8.7h8.7    v-17.6h-26v17.6h8.7v8.7h-29V449.5z"></path>
		<path class="st0" d="M335,449.5h7.5v-42.7H335V398h54.7v18.1h-10.6v-9.3h-23.8v16.4h9.1v-8.2h9.7v24.6h-9.7v-8.1h-9.1v18.1h23.8    v-10.9h10.6v19.7H335L335,449.5L335,449.5z"></path>
		<path class="st0" d="M423.5,428.1c0-18.1,11.4-31.4,31.8-31.4c20.4,0,31.8,13.3,31.8,31.4s-11.4,31.4-31.8,31.4    C435,459.5,423.5,446.3,423.5,428.1z M473.7,428.1c0-12.9-5.4-22.6-18.3-22.6c-13,0-18.3,9.7-18.3,22.6s5.3,22.6,18.3,22.6    C468.3,450.8,473.7,441,473.7,428.1z"></path>
		<path class="st0" d="M548.5,398v20.2h-10.6v-11.4H514v17.6h8.5v-8h9.7v24.6h-9.7v-8.3H514v16.9h8.9v8.7h-29.2v-8.7h7.5v-42.7h-7.5    V398L548.5,398L548.5,398z"></path>
		<path class="st0" d="M609.9,398v20.2h-10.6v-11.4h-23.8v17.6h8.5v-8h9.7v24.6h-9.7v-8.3h-8.5v16.9h8.9v8.7h-29.2v-8.7h7.6v-42.7    h-7.6V398L609.9,398L609.9,398z"></path>
		<path class="st0" d="M618,449.5h7.6v-42.7H618V398h27.8v8.7h-7.5v42.7h7.5v8.7H618V449.5z"></path>
		<path class="st0" d="M711.5,420.3H700c-0.1-9.1-6.3-14.8-15.2-14.8c-13.5,0-17.5,12.1-17.5,24.1c0,11.6,5.6,21.2,18.4,21.2    c7.5,0,13.5-5.4,13.7-13.3h12.3c-0.3,16.9-14.5,22.1-26.4,22.1c-21.2,0-31.4-13.5-31.4-31c0-18.4,9.5-31.9,28.8-31.9    c7.2,0,13.2,2,17.2,8.1l0.2,0.2v-7h11.5V420.3z"></path>
		<path class="st0" d="M720.2,449.5h7.6v-42.7h-7.6V398H748v8.7h-7.5v42.7h7.5v8.7h-27.8V449.5z"></path>
		<path class="st0" d="M753.7,449.5h5.1l21.3-51.5h15.7l21.1,51.5h5.1v8.7h-25.9v-8.7h7.5l-4-9.7h-25l-3.8,9.7h7.5v8.7h-24.7    L753.7,449.5L753.7,449.5z M796.3,431.1l-9-23.1l-9.2,23.1H796.3z"></path>
		<path class="st0" d="M826.2,449.5h7.6v-42.7h-7.6V398h30v8.7h-9.7v42.7h19.8V437h11.1v21.2h-51.1V449.5z"></path>
	</g>
	<g>
		<path class="st0" d="M199.4,819.9h6l33.1-81.2H272l32.3,81.2h6V837h-46.8v-17.1h11.1l-4.3-11H235l-4.3,11h11.1V837h-42.4    L199.4,819.9L199.4,819.9z M241.3,792.7H264l-11.1-32.5h-0.3L241.3,792.7z"></path>
		<path class="st0" d="M456.3,755.9h-5.7l-20.9,81.2h-32.8l-13.5-77.2h-0.3l-13.8,77.2H336l-20.1-81.2h-5.7v-17.1h44.7v17.1h-11.4    l11,58.9h0.3l15.8-76H401l15,76h0.3l11.1-58.9h-11.1v-17.1h40L456.3,755.9L456.3,755.9z"></path>
		<path class="st0" d="M453.1,819.9h6l33.1-81.2h33.5l32.3,81.2h6V837h-46.8v-17.1h11.1l-4.3-11h-35.3l-4.3,11h11.1V837h-42.4    L453.1,819.9L453.1,819.9z M495.1,792.7h22.7l-11.1-32.5h-0.3L495.1,792.7z"></path>
		<path class="st0" d="M571.3,819.9h9.6v-64h-9.6v-17.1h53.8c9.8-0.2,19.1,0.6,26,4.5c7,3.9,11.6,10.7,11.6,22.2    c0,15.2-10.1,23-24.6,23.9v0.3c19.8,0,18.9,16.1,24.6,30.2h8.7V837h-32.6c-1.3-3.1-3.3-11.3-6-19.2c-1.2-3.7-5.1-14.6-7.8-17.3    c-1.9-2.1-4.6-2.4-7.5-2.5h-8.3v21.9h10.7V837h-48.6V819.9z M609.2,780.8h10.1c8.4,0,15.2-3.3,15.2-13.7    c0-10.4-8.3-11.3-15.2-11.3h-10.1V780.8z"></path>
		<path class="st0" d="M679.8,819.9h9.9v-64h-9.9v-17.1h34.6c10.2,0,24.8-0.6,34.6,0.9c24.9,4,37.6,23.7,37.6,47.7    c0,16.1-5.4,32-19.2,41.3c-13.7,9-27.8,8.4-43.8,8.4h-43.8L679.8,819.9L679.8,819.9z M718,819.9h12.9c19.7,0,25.7-15.2,25.7-32.9    c0-17.6-5.4-31.1-24.6-31.1h-14V819.9z"></path>
		<path class="st0" d="M796.3,803.2h24.8c-0.3,11,5.8,18.8,17.3,18.8c6.6,0,14-2.8,14-10.5c0-17.9-55.5-9.3-55.5-45.3    c0-21,16.7-29.6,35.8-29.6c6.9,0,19.8,1.8,22.5,9.6h0.3v-7.5h23.1v31.1h-23c0.9-11.1-6.3-16.1-16.7-16.1c-5.8,0-13.8,2.2-13.8,9.5    c0,16.5,55.5,7.8,55.5,44.2c0,23.4-14.6,31.7-36.5,31.7c-8.8,0-20.4-2.4-24.3-11.6h-0.3v9.5h-23.1V803.2z"></path>
	</g>
	<g>
		<path class="st0" d="M284.7,517.2c-0.1,3.9-0.9,6.7-2.5,9.5c-3.6,6.4-11.8,10.3-22,10.3c-8.3,0-15.4-2.4-20.3-7    c-5.1-4.7-7.8-12.3-7.8-21.7c0-7.8,1.9-14.5,5.5-19.4c4.2-5.7,10.5-8.5,18.8-8.5c4.8,0,9.2,1.2,12,3.4c1.3,1,2,1.9,3.2,3.9v-5.9    h12.6v20h-13.8c-0.2-7.4-4-11.6-10.4-11.6c-7.9,0-12.1,6.8-12.1,19.2c0,11.7,4.3,18,12.1,18c5.8,0,9.4-3.8,9.7-10.2L284.7,517.2    L284.7,517.2z"></path>
		<path class="st0" d="M346,508.3c0,18.1-10.6,28.8-28.4,28.8c-18,0-28.6-10.6-28.6-28.6c0-17.4,10.7-28,28.3-28    C335.3,480.4,346,490.8,346,508.3z M307.3,495.5c-1.6,3.1-2.4,7.5-2.4,13.6c0,7.9,1.3,12.6,4.6,15.9c2,2.1,4.6,3.1,7.8,3.1    c3.3,0,6.4-1.2,8.3-3.3c3.2-3.3,4.5-8,4.5-15.9c0-6.1-0.7-10.3-2.4-13.5c-1.9-3.9-5.8-6.2-10.2-6.2    C313.3,489.3,309.3,491.7,307.3,495.5z"></path>
		<path class="st0" d="M367.5,490.9h-0.6c0.6,12.8,0.6,16.9,0.6,26.5v9.1h5.2v9.1h-21.9v-9.1h5.2v-35.7h-5.2v-9.1h27.5l5.5,20.8    c1.8,7.2,2.5,10.3,3.8,18.2c1.3-7.8,1.8-9.8,4.3-19.3l5.2-19.6h27.5v9.1h-5.2v35.7h5.2v9.1h-24.1v-9.1h5.2    c0.1-17.1,0.2-19.6,0.6-35.7h-0.6l-12.1,44.8h-14L367.5,490.9z"></path>
		<path class="st0" d="M446.8,490.9h-0.6c0.6,12.8,0.6,16.9,0.6,26.5v9.1h5.2v9.1h-21.9v-9.1h5.2v-35.7h-5.2v-9.1h27.5l5.5,20.8    c1.8,7.2,2.5,10.3,3.8,18.2c1.3-7.8,1.8-9.8,4.3-19.3l5.2-19.6H504v9.1h-5.2v35.7h5.2v9.1h-24.1v-9.1h5.2    c0.1-17.1,0.2-19.6,0.6-35.7h-0.6L473,535.7h-14L446.8,490.9z"></path>
		<path class="st0" d="M560.3,517.5c0,12.8-8.3,19.6-23.9,19.6c-15.2,0-23.1-6.4-23.1-18.5v-27.6h-4.4v-9.1h25.3v9.1h-5.7v26.5    c0,3.7,0.5,5.7,1.8,7.4c1.3,1.9,4.3,3.1,7.4,3.1c2.6,0,4.8-0.8,6.4-2.3c2.2-2.2,3-4.9,3-10.4v-24.3h-5.5v-9.1h23.1v9.1h-4.5V517.5    z"></path>
		<path class="st0" d="M592.2,508.7c-2.4-4.8-3.6-8.2-6-15.7h-0.3c1.1,14.6,1.2,17.1,1.4,33.6h5.5v9.1h-23v-9.1h5.2v-35.7h-5.2v-9.1    h25.6l11.5,23.8c2.6,5.6,4,9.1,6.6,17h0.3c-1.3-15.9-1.5-18.5-1.5-31.7h-5.5v-9.1h23v9.1h-5.2v44.8h-18.7L592.2,508.7z"></path>
		<path class="st0" d="M661.6,526.6v9.1h-27.1v-9.1h6v-35.7h-6v-9.1h27.1v9.1h-5.9v35.7H661.6z"></path>
		<path class="st0" d="M700.1,526.6h6.7v9.1h-28.8v-9.1h6.7v-35.7H678v10.3h-12.1v-19.5h53.3v19.5H707v-10.3h-6.9L700.1,526.6    L700.1,526.6z"></path>
		<path class="st0" d="M760.4,490.9h-5.8v-9.1h23.8v9.1h-3.3l-16.9,25.7v9.9h7.2v9.1h-29.5v-9.1h7.2v-9.9l-17.1-25.7h-3.3v-9.1h26.7    v9.1H743l8.7,14.5L760.4,490.9z"></path>
		<path class="st0" d="M796.6,481.8v13l-3.6,11h-10l4.8-11h-4.9v-13H796.6z"></path>
		<path class="st0" d="M815.7,517.2c0.2,7.1,2.7,10.2,8.6,10.2c5.1,0,8.2-2.2,8.2-5.7c0-2.8-1.1-3.8-6.7-5.9l-11.8-4.5    c-7.5-2.8-10.9-7.3-10.9-14.3c0-10.6,6.7-16.6,18.4-16.6c6.9,0,10.9,1.9,13.1,6.2v-4.8h12.1v17.1h-12.1c0-6.1-2.7-8.7-9-8.7    c-4.8,0-7.5,1.8-7.5,5c0,2.7,1.1,3.6,7.2,5.7l9.4,3.3c9.9,3.6,13.4,7.7,13.4,15.9c0,10.9-6.9,17-19.4,17c-7.3,0-11.3-1.9-13.6-6.6    v5.2h-12.1v-18.5L815.7,517.2L815.7,517.2z"></path>
	</g>
	<g>
		<path class="st2" d="M303.7,1003.4h-16.5V943h42.4v13.2h-25.9v12.1h21.5v13.2h-21.5L303.7,1003.4L303.7,1003.4z"></path>
		<path class="st2" d="M362,1003.4l-0.8-6c-3,4.7-7.5,7.1-13.5,7.1c-2.7,0-5.1-0.6-7.2-1.7c-2.2-1.2-3.9-2.7-5.1-4.8    c-1.3-2-1.9-4.3-1.9-7c0-5,1.9-8.9,5.9-11.7c3.9-2.8,9.1-4.2,15.6-4.2c2,0,4.1,0.2,6.4,0.5c-0.2-2.2-1.2-3.9-2.9-5.1    c-1.7-1.2-3.7-1.7-6.2-1.7c-2.1,0-4.3,0.4-6.4,1.2s-4.2,1.8-6.2,2.9l-5.2-9.9c3-1.9,6.1-3.4,9.6-4.4c3.4-1.1,6.9-1.5,10.3-1.5    c4.1,0,7.9,0.7,11.2,2.1c3.3,1.4,5.9,3.6,7.8,6.5c1.9,2.9,2.8,6.6,2.8,11v26.7L362,1003.4L362,1003.4z M348.4,988.8    c0,1.3,0.5,2.5,1.5,3.3c1,0.9,2.3,1.3,3.9,1.3c2.1,0,3.9-0.7,5.4-2.2c1.4-1.5,2.2-3.3,2.2-5.5v-1.5c-1.6-0.3-3.3-0.4-5.1-0.4    c-2.2,0-4.1,0.4-5.6,1.2C349.2,985.7,348.4,987,348.4,988.8z"></path>
		<path class="st2" d="M416,999.9c-2.7,7-5.8,12.2-9.3,15.6c-3.5,3.4-7.9,5.1-13.3,5.1c-2.4,0-4.6-0.3-6.6-0.8s-3.6-1.2-5-2    l4.3-10.6c0.8,0.4,1.8,0.8,2.7,1.1c1,0.3,2.1,0.4,3.2,0.4c1.6,0,3-0.4,4.3-1.2c1.3-0.8,2.4-2.2,3.3-4.2l0.7-1.6L380,958.2H397    l10,27.1l8.2-27.1h16.8L416,999.9z"></path>
		<path class="st2" d="M479.6,998.8c-2.2,1.6-5.1,3-8.5,4.1c-3.4,1.1-7.2,1.7-11.1,1.7c-5.4,0-10-1-13.8-3c-3.8-2-6.7-4.8-8.8-8.3    c-2-3.6-3.1-7.6-3.1-12.3c0-4.7,1-8.8,3-12.4c2-3.6,4.8-6.4,8.3-8.5c3.6-2,7.7-3.1,12.4-3.1c4.6,0,8.7,1,12.2,3    c3.5,2,6.3,4.7,8.2,8.2s3,7.6,3,12.4c0,0.6,0,1.3-0.2,2c-0.1,0.7-0.2,1.5-0.3,2.2h-31.5c1.4,5.2,5.3,7.8,11.6,7.8    c2.8,0,5.4-0.4,7.5-1.3c2.2-0.9,4-1.8,5.5-2.7L479.6,998.8z M458.5,968.2c-5,0-8.1,2.7-9,8h17.2c-0.4-2.9-1.4-4.9-3-6.2    C462.1,968.8,460.4,968.2,458.5,968.2z"></path>
		<path class="st2" d="M522.8,1000.5c-1.8,1.2-3.9,2.2-6.3,3c-2.4,0.8-4.8,1.1-7.5,1.1c-4.8,0-8.7-1.4-11.6-4.2    c-2.9-2.8-4.3-6.6-4.3-11.3v-19.3h-7.3v-11.5h8.1l1.9-12.6h12.8v12.6h11.8v11.5h-11.8v17.3c0,1.5,0.4,2.7,1.4,3.6    c0.9,0.9,2.1,1.3,3.7,1.3c0.8,0,1.6-0.1,2.4-0.4c0.8-0.3,1.5-0.6,2.2-1.1L522.8,1000.5z"></path>
		<path class="st2" d="M563.4,1000.5c-1.8,1.2-3.9,2.2-6.3,3c-2.4,0.8-4.8,1.1-7.5,1.1c-4.8,0-8.7-1.4-11.6-4.2    c-2.9-2.8-4.3-6.6-4.3-11.3v-19.3h-7.3v-11.5h8.1l1.9-12.6h12.8v12.6H561v11.5h-11.8v17.3c0,1.5,0.4,2.7,1.4,3.6    c0.9,0.9,2.1,1.3,3.7,1.3c0.8,0,1.5-0.1,2.4-0.4c0.8-0.3,1.5-0.6,2.2-1.1L563.4,1000.5z"></path>
		<path class="st2" d="M612,998.8c-2.2,1.6-5.1,3-8.6,4.1c-3.4,1.1-7.2,1.7-11.1,1.7c-5.4,0-10-1-13.8-3c-3.8-2-6.7-4.8-8.8-8.3    c-2-3.6-3.1-7.6-3.1-12.3c0-4.7,1-8.8,3-12.4c2-3.6,4.8-6.4,8.4-8.5c3.6-2,7.7-3.1,12.4-3.1c4.6,0,8.7,1,12.2,3    c3.5,2,6.3,4.7,8.2,8.2s3,7.6,3,12.4c0,0.6,0,1.3-0.2,2c-0.1,0.7-0.2,1.5-0.3,2.2h-31.5c1.4,5.2,5.3,7.8,11.6,7.8    c2.8,0,5.4-0.4,7.5-1.3c2.2-0.9,4-1.8,5.5-2.7L612,998.8z M590.8,968.2c-5,0-8.1,2.7-9.1,8H599c-0.4-2.9-1.4-4.9-3-6.2    C594.5,968.8,592.7,968.2,590.8,968.2z"></path>
		<path class="st2" d="M667.4,958.2l-17.5,45.2H633l-17.5-45.2h16.9l9.2,29.2l9-29.2H667.4z"></path>
		<path class="st2" d="M681.4,953.9c-2.7,0-4.8-0.8-6.5-2.4s-2.5-3.5-2.5-5.8c0-2.4,0.8-4.3,2.5-5.8s3.9-2.3,6.5-2.3    s4.8,0.8,6.5,2.3c1.7,1.5,2.5,3.5,2.5,5.8c0,2.3-0.8,4.2-2.5,5.8C686.2,953.1,684.1,953.9,681.4,953.9z M673.7,1003.4v-45.2h15.4    v45.2H673.7z"></path>
		<path class="st2" d="M700,1003.4v-64.8h15.4v64.8H700z"></path>
		<path class="st2" d="M726.2,1003.4v-64.8h15.4v64.8H726.2z"></path>
		<path class="st2" d="M795,998.8c-2.2,1.6-5.1,3-8.6,4.1c-3.4,1.1-7.2,1.7-11.1,1.7c-5.4,0-10-1-13.8-3c-3.8-2-6.7-4.8-8.8-8.3    c-2-3.6-3.1-7.6-3.1-12.3c0-4.7,1-8.8,3-12.4c2-3.6,4.8-6.4,8.4-8.5c3.6-2,7.7-3.1,12.4-3.1c4.6,0,8.7,1,12.2,3    c3.5,2,6.3,4.7,8.2,8.2s3,7.6,3,12.4c0,0.6,0,1.3-0.2,2c-0.1,0.7-0.2,1.5-0.3,2.2H765c1.4,5.2,5.3,7.8,11.6,7.8    c2.8,0,5.4-0.4,7.5-1.3c2.2-0.9,4-1.8,5.5-2.7L795,998.8z M773.9,968.2c-5,0-8.1,2.7-9.1,8H782c-0.4-2.9-1.4-4.9-3-6.2    C777.5,968.8,775.8,968.2,773.9,968.2z"></path>
	</g>
</g>
</svg>
